<svg xmlns="http://www.w3.org/2000/svg" width="32" height="32" viewBox="0 0 32 32" fill="none">
  <path d="M26.6719 4C27.3791 4 28.0574 4.28095 28.5575 4.78105C29.0576 5.28115 29.3385 5.95942 29.3385 6.66667V25.3333C29.3385 26.0406 29.0576 26.7189 28.5575 27.219C28.0574 27.719 27.3791 28 26.6719 28H5.33854C4.6313 28 3.95302 27.719 3.45292 27.219C2.95283 26.7189 2.67188 26.0406 2.67188 25.3333V6.66667C2.67187 5.95942 2.95283 5.28115 3.45292 4.78105C3.95302 4.28095 4.6313 4 5.33854 4H26.6719ZM22.6719 20H9.33854C8.98492 20 8.64578 20.1405 8.39573 20.3905C8.14568 20.6406 8.00521 20.9797 8.00521 21.3333C8.00521 21.687 8.14568 22.0261 8.39573 22.2761C8.64578 22.5262 8.98492 22.6667 9.33854 22.6667H22.6719C23.0255 22.6667 23.3646 22.5262 23.6147 22.2761C23.8647 22.0261 24.0052 21.687 24.0052 21.3333C24.0052 20.9797 23.8647 20.6406 23.6147 20.3905C23.3646 20.1405 23.0255 20 22.6719 20ZM13.3385 9.33333H10.6719C9.99911 9.33312 9.35112 9.58721 8.85781 10.0447C8.3645 10.5021 8.06233 11.1291 8.01187 11.8L8.00521 12V14.6667C8.005 15.3394 8.25908 15.9874 8.71654 16.4807C9.17399 16.974 9.801 17.2762 10.4719 17.3267L10.6719 17.3333H13.3385C14.0113 17.3335 14.6593 17.0795 15.1526 16.622C15.6459 16.1646 15.9481 15.5375 15.9985 14.8667L16.0052 14.6667V12C16.0054 11.3272 15.7513 10.6792 15.2939 10.1859C14.8364 9.69263 14.2094 9.39046 13.5385 9.34L13.3385 9.33333ZM22.6719 14.6667H18.6719C18.332 14.667 18.0052 14.7972 17.758 15.0305C17.5109 15.2638 17.3622 15.5826 17.3423 15.9219C17.3224 16.2611 17.4328 16.5952 17.6509 16.8558C17.869 17.1164 18.1784 17.2839 18.5159 17.324L18.6719 17.3333H22.6719C23.0117 17.333 23.3386 17.2028 23.5857 16.9695C23.8328 16.7362 23.9815 16.4174 24.0014 16.0781C24.0214 15.7389 23.911 15.4048 23.6929 15.1442C23.4747 14.8836 23.1653 14.7161 22.8279 14.676L22.6719 14.6667ZM13.3385 12V14.6667H10.6719V12H13.3385ZM22.6719 9.33333H18.6719C18.3183 9.33333 17.9791 9.47381 17.7291 9.72386C17.479 9.97391 17.3385 10.313 17.3385 10.6667C17.3385 11.0203 17.479 11.3594 17.7291 11.6095C17.9791 11.8595 18.3183 12 18.6719 12H22.6719C23.0255 12 23.3646 11.8595 23.6147 11.6095C23.8647 11.3594 24.0052 11.0203 24.0052 10.6667C24.0052 10.313 23.8647 9.97391 23.6147 9.72386C23.3646 9.47381 23.0255 9.33333 22.6719 9.33333Z" fill="#686972"/>
</svg>