<svg xmlns="http://www.w3.org/2000/svg" width="32" height="32" viewBox="0 0 32 32" fill="none">
  <path d="M6.40313 4.80078C5.55443 4.80078 4.7405 5.13792 4.14038 5.73804C3.54027 6.33816 3.20313 7.15209 3.20312 8.00078V13.8744C4.40339 12.3892 6.14449 11.4416 8.04341 11.2401C9.94233 11.0386 11.8435 11.5997 13.3287 12.8C14.8139 14.0002 15.7615 15.7413 15.963 17.6403C16.1645 19.5392 15.6034 21.4404 14.4031 22.9256V24.0008H25.6031C26.4518 24.0008 27.2658 23.6636 27.8659 23.0635C28.466 22.4634 28.8031 21.6495 28.8031 20.8008V8.00078C28.8031 7.15209 28.466 6.33816 27.8659 5.73804C27.2658 5.13792 26.4518 4.80078 25.6031 4.80078H6.40313ZM8.80312 11.2008C8.59095 11.2008 8.38747 11.1165 8.23744 10.9665C8.08741 10.8164 8.00313 10.613 8.00313 10.4008C8.00313 10.1886 8.08741 9.98512 8.23744 9.8351C8.38747 9.68507 8.59095 9.60078 8.80312 9.60078H23.2031C23.4153 9.60078 23.6188 9.68507 23.7688 9.8351C23.9188 9.98512 24.0031 10.1886 24.0031 10.4008C24.0031 10.613 23.9188 10.8164 23.7688 10.9665C23.6188 11.1165 23.4153 11.2008 23.2031 11.2008H8.80312ZM17.6031 16.8008C17.6031 16.5886 17.6874 16.3851 17.8374 16.2351C17.9875 16.0851 18.191 16.0008 18.4031 16.0008H23.2031C23.4153 16.0008 23.6188 16.0851 23.7688 16.2351C23.9188 16.3851 24.0031 16.5886 24.0031 16.8008C24.0031 17.013 23.9188 17.2164 23.7688 17.3665C23.6188 17.5165 23.4153 17.6008 23.2031 17.6008H18.4031C18.191 17.6008 17.9875 17.5165 17.8374 17.3665C17.6874 17.2164 17.6031 17.013 17.6031 16.8008ZM8.80312 24.0008C7.31791 24.0008 5.89353 23.4108 4.84333 22.3606C3.79312 21.3104 3.20313 19.886 3.20312 18.4008C3.20312 16.9156 3.79312 15.4912 4.84333 14.441C5.89353 13.3908 7.31791 12.8008 8.80312 12.8008C10.2883 12.8008 11.7127 13.3908 12.7629 14.441C13.8131 15.4912 14.4031 16.9156 14.4031 18.4008C14.4031 19.886 13.8131 21.3104 12.7629 22.3606C11.7127 23.4108 10.2883 24.0008 8.80312 24.0008ZM4.80313 24.388C5.9872 25.1789 7.3792 25.6009 8.80312 25.6008C10.2831 25.6008 11.6591 25.1528 12.8031 24.388V28.8008C12.8031 28.9493 12.7618 29.095 12.6836 29.2214C12.6055 29.3477 12.4938 29.4499 12.3609 29.5163C12.228 29.5828 12.0793 29.6109 11.9313 29.5975C11.7833 29.5842 11.642 29.5299 11.5231 29.4408L9.28313 27.7608C9.14465 27.6569 8.97622 27.6008 8.80312 27.6008C8.63003 27.6008 8.4616 27.6569 8.32312 27.7608L6.08312 29.4408C5.96427 29.5299 5.82294 29.5842 5.67497 29.5975C5.527 29.6109 5.37824 29.5828 5.24535 29.5163C5.11247 29.4499 5.00071 29.3477 4.9226 29.2214C4.8445 29.095 4.80313 28.9493 4.80313 28.8008V24.388Z" fill="#686972"/>
</svg>