<svg xmlns="http://www.w3.org/2000/svg" width="32" height="32" viewBox="0 0 32 32" fill="none">
  <path fill-rule="evenodd" clip-rule="evenodd" d="M5.56209 4.23006C4 5.79217 4 8.30631 4 13.3346V18.668C4 23.6962 4 26.2105 5.56209 27.7725C7.1242 29.3346 9.63835 29.3346 14.6667 29.3346H17.3333C22.3616 29.3346 24.8759 29.3346 26.4379 27.7725C28 26.2105 28 23.6962 28 18.668V13.3346C28 8.30631 28 5.79217 26.4379 4.23006C24.8759 2.66797 22.3616 2.66797 17.3333 2.66797H14.6667C9.63835 2.66797 7.1242 2.66797 5.56209 4.23006ZM9.66667 10.668C9.66667 10.1157 10.1144 9.66797 10.6667 9.66797H21.3333C21.8856 9.66797 22.3333 10.1157 22.3333 10.668C22.3333 11.2202 21.8856 11.668 21.3333 11.668H10.6667C10.1144 11.668 9.66667 11.2202 9.66667 10.668ZM9.66667 16.0013C9.66667 15.449 10.1144 15.0013 10.6667 15.0013H21.3333C21.8856 15.0013 22.3333 15.449 22.3333 16.0013C22.3333 16.5536 21.8856 17.0013 21.3333 17.0013H10.6667C10.1144 17.0013 9.66667 16.5536 9.66667 16.0013ZM10.6667 20.3346C10.1144 20.3346 9.66667 20.7824 9.66667 21.3346C9.66667 21.8869 10.1144 22.3346 10.6667 22.3346H17.3333C17.8856 22.3346 18.3333 21.8869 18.3333 21.3346C18.3333 20.7824 17.8856 20.3346 17.3333 20.3346H10.6667Z" fill="#686972"/>
</svg>