<svg xmlns="http://www.w3.org/2000/svg" width="32" height="32" viewBox="0 0 32 32" fill="none">
  <path d="M28.5727 28.0139C28.7939 28.0139 29.0033 27.9143 29.1426 27.7423C29.2819 27.5704 29.3363 27.3449 29.2905 27.1285L28.8285 24.942C29.0916 24.6874 29.2571 24.332 29.2571 23.9368C29.2571 23.5208 29.0718 23.1518 28.7842 22.8955V15.3023L26.932 16.4485V22.8955C26.6444 23.1518 26.4591 23.5208 26.4591 23.9368C26.4591 24.332 26.6245 24.6875 26.8877 24.942L26.4256 27.1285C26.3799 27.345 26.4343 27.5705 26.5735 27.7423C26.7129 27.9142 26.9222 28.0139 27.1435 28.0139H28.5727ZM29.2005 10.8714L17.151 3.41243C16.7981 3.19506 16.4003 3.08594 16.0025 3.08594C15.6047 3.08594 15.2066 3.19497 14.8559 3.41243L2.80623 10.8714C2.48448 11.0705 2.28906 11.4221 2.28906 11.8006C2.28906 12.1791 2.48448 12.5308 2.80623 12.7302L14.8558 20.1893C15.2065 20.4069 15.6046 20.5158 16.0024 20.5158C16.4003 20.5158 16.7981 20.4067 17.151 20.1893L29.2005 12.7302C29.5222 12.5309 29.7176 12.1791 29.7176 11.8006C29.7176 11.4221 29.5222 11.0704 29.2005 10.8714ZM16.0025 22.3678C15.2519 22.3678 14.5193 22.1594 13.8808 21.7642L6.85218 17.4129V24.9054C6.85218 27.1229 10.9508 28.9179 16.0024 28.9179C21.0559 28.9179 25.1542 27.1228 25.1542 24.9054V17.4129L18.1259 21.7642C17.4873 22.1594 16.753 22.3678 16.0025 22.3678Z" fill="#686972"/>
</svg>