<svg xmlns="http://www.w3.org/2000/svg" width="30" height="30" viewBox="0 0 30 30" fill="none">
  <g clip-path="url(#clip0_950_1675)">
    <path d="M9.16927 13.75L8.33594 16.3333H10.0026L9.16927 13.75Z" fill="#686972"/>
    <path d="M25.2474 2.5H11.9141V6.66667H15.2474V8.33333H4.41406C2.9974 8.33333 1.91406 9.41667 1.91406 10.8333V20C1.91406 21.4167 2.9974 22.5 4.41406 22.5H5.2474V26.75L10.4974 22.5H16.0807V16.6667H25.2474C26.6641 16.6667 27.7474 15.5833 27.7474 14.1667V5C27.7474 3.58333 26.6641 2.5 25.2474 2.5ZM10.9141 19.0833L10.4974 17.75H7.91406L7.41406 19.0833H5.41406L8.16406 11.6667H10.1641L12.9141 19.0833H10.9141ZM23.5807 12.5V14.1667C22.4974 14.1667 21.3307 13.8333 20.3307 13.3333C19.3307 13.8333 18.1641 14.0833 16.9974 14.1667L16.9141 12.5C17.4974 12.5 18.0807 12.4167 18.6641 12.25C17.9141 11.5 17.4141 10.5833 17.1641 9.58333H18.9141C19.1641 10.3333 19.6641 10.9167 20.2474 11.4167C21.1641 10.6667 21.7474 9.58333 21.8307 8.33333H16.8307V6.66667H19.3307V5H20.9974V6.66667H23.7474L23.8307 7.5C23.9141 9.25 23.2474 11 21.9974 12.25C22.5807 12.4167 23.0807 12.5 23.5807 12.5Z" fill="#686972"/>
  </g>
  <defs>
    <clipPath id="clip0_950_1675">
      <rect width="30" height="30" fill="white"/>
    </clipPath>
  </defs>
</svg>