<svg xmlns="http://www.w3.org/2000/svg" width="32" height="32" viewBox="0 0 32 32" fill="none">
  <g clip-path="url(#clip0_950_846)">
    <path d="M16 2.66797C22.6275 2.66797 28 8.04056 28 14.668C28 18.7664 25.7655 22.1202 23.4112 24.5273C22.1196 25.8478 20.7462 26.9311 19.5756 27.7497L19.0085 28.1369C18.9173 28.1977 18.8277 28.2566 18.7401 28.3137L18.2385 28.6332L17.7905 28.9068L17.2361 29.2293C16.4639 29.6654 15.5361 29.6654 14.7639 29.2293L14.2095 28.9068L13.5169 28.4792C13.4332 28.4259 13.3475 28.3707 13.2599 28.3137L12.7127 27.9488C11.4833 27.11 9.98808 25.9579 8.58883 24.5273C6.23453 22.1202 4 18.7664 4 14.668C4 8.04056 9.37259 2.66797 16 2.66797ZM16 10.668C13.7908 10.668 12 12.4588 12 14.668C12 16.8772 13.7908 18.668 16 18.668C18.2092 18.668 20 16.8772 20 14.668C20 12.4588 18.2092 10.668 16 10.668Z" fill="#3B3B3E"/>
  </g>
  <defs>
    <clipPath id="clip0_950_846">
      <rect width="32" height="32" fill="white"/>
    </clipPath>
  </defs>
</svg>