<svg xmlns="http://www.w3.org/2000/svg" width="32" height="32" viewBox="0 0 32 32" fill="none">
  <path d="M26.0564 10H5.94395C4.87023 10 4 10.91 4 12.0319V14.8145L13.9144 17V15.6145H18.0287V17L28 14.8006V12.0319C28 10.91 27.1298 10 26.0564 10Z" fill="#686972"/>
  <path d="M17.9722 21.6226H13.9721V18.8887L5 17.014V25.0116C5 26.1095 5.8457 27 6.88923 27H25.1104C26.1539 27 27 26.1095 27 25.0116V17L17.9722 18.8887V21.6226Z" fill="#686972"/>
  <path d="M17 17H15V20H17V17Z" fill="#686972"/>
  <path d="M12.8174 7.33355C12.8178 7.23776 12.85 7.1616 12.9069 7.09686C12.9645 7.03482 13.0343 7.00023 13.1205 6.99933H18.879C18.9653 7.00023 19.0355 7.03482 19.0931 7.09686C19.1495 7.1616 19.1814 7.23776 19.1818 7.33355V9H21V7.33355C21.0004 6.69176 20.7614 6.10313 20.3789 5.68386C19.998 5.26285 19.4615 4.99955 18.879 5H13.1205C12.5377 4.99955 12.0016 5.26285 11.6207 5.68386C11.2386 6.10313 10.9988 6.69171 11 7.33355V9H12.8174V7.33355Z" fill="#686972"/>
</svg>