<svg xmlns="http://www.w3.org/2000/svg" width="20" height="21" viewBox="0 0 20 21" fill="none">
  <path d="M14.2188 8.43728L11.2305 5.44895C10.996 5.21456 10.678 5.08293 10.3464 5.08301C10.0149 5.08309 9.69694 5.21487 9.46255 5.44936C9.22817 5.68386 9.09653 6.00186 9.09661 6.33341C9.09669 6.66496 9.22847 6.9829 9.46297 7.21728L11.4955 9.24978H4.16797C3.83645 9.24978 3.51851 9.38148 3.28409 9.6159C3.04966 9.85032 2.91797 10.1683 2.91797 10.4998C2.91797 10.8313 3.04966 11.1492 3.28409 11.3837C3.51851 11.6181 3.83645 11.7498 4.16797 11.7498H11.4955L9.46297 13.7823C9.22847 14.0167 9.09669 14.3346 9.09661 14.6662C9.09653 14.9977 9.22817 15.3157 9.46255 15.5502C9.69694 15.7847 10.0149 15.9165 10.3464 15.9166C10.678 15.9166 10.996 15.785 11.2305 15.5506L14.2188 12.5623C14.7648 12.0148 15.0715 11.273 15.0715 10.4998C15.0715 9.72652 14.7648 8.98481 14.2188 8.43728Z" fill="white"/>
</svg>