<svg xmlns="http://www.w3.org/2000/svg" width="19" height="20" viewBox="0 0 19 20" fill="none">
  <path d="M12.8958 11.7083H12.2704L12.0488 11.4946C12.8515 10.5636 13.2926 9.37506 13.2917 8.14584C13.2917 7.12809 12.9899 6.13319 12.4244 5.28696C11.859 4.44074 11.0553 3.78118 10.1151 3.39171C9.17478 3.00223 8.14013 2.90032 7.14193 3.09888C6.14374 3.29743 5.22684 3.78752 4.50718 4.50718C3.78752 5.22684 3.29743 6.14374 3.09888 7.14193C2.90032 8.14013 3.00223 9.17478 3.39171 10.1151C3.78118 11.0553 4.44074 11.859 5.28696 12.4244C6.13319 12.9899 7.12809 13.2917 8.14584 13.2917C9.42042 13.2917 10.5921 12.8246 11.4946 12.0488L11.7083 12.2704V12.8958L15.6667 16.8463L16.8463 15.6667L12.8958 11.7083ZM8.14584 11.7083C6.17459 11.7083 4.58334 10.1171 4.58334 8.14584C4.58334 6.17459 6.17459 4.58334 8.14584 4.58334C10.1171 4.58334 11.7083 6.17459 11.7083 8.14584C11.7083 10.1171 10.1171 11.7083 8.14584 11.7083Z" fill="#4C4D52"/>
</svg>