<svg xmlns="http://www.w3.org/2000/svg" width="32" height="32" viewBox="0 0 32 32" fill="none">
  <path fill-rule="evenodd" clip-rule="evenodd" d="M9.66347 7.28016V9.1735L7.40481 9.3575C6.62885 9.41995 5.89623 9.74077 5.3241 10.2687C4.75197 10.7966 4.37336 11.5011 4.24881 12.2695C4.1937 12.6135 4.14303 12.9579 4.09681 13.3028C4.08643 13.3863 4.10262 13.4709 4.14307 13.5446C4.18352 13.6183 4.24618 13.6774 4.32214 13.7135L4.42481 13.7615C11.6635 17.1882 20.3315 17.1882 27.5688 13.7615L27.6715 13.7135C27.7472 13.6772 27.8096 13.618 27.8498 13.5443C27.89 13.4706 27.906 13.3861 27.8955 13.3028C27.8502 12.9577 27.8 12.6132 27.7448 12.2695C27.6203 11.5011 27.2416 10.7966 26.6695 10.2687C26.0974 9.74077 25.3648 9.41995 24.5888 9.3575L22.3301 9.17483V7.2815C22.3303 6.72263 22.1298 6.18228 21.7652 5.75872C21.4006 5.33516 20.8961 5.05653 20.3435 4.9735L18.7168 4.7295C16.9135 4.45996 15.0801 4.45996 13.2768 4.7295L11.6501 4.9735C11.0977 5.05649 10.5934 5.33494 10.2288 5.75822C9.86426 6.1815 9.66366 6.72153 9.66347 7.28016ZM18.4195 6.70683C16.8133 6.46693 15.1803 6.46693 13.5741 6.70683L11.9475 6.95083C11.8686 6.96264 11.7965 7.00237 11.7444 7.06281C11.6923 7.12324 11.6636 7.20036 11.6635 7.28016V9.0335C14.55 8.86865 17.4436 8.86865 20.3301 9.0335V7.28016C20.3301 7.20036 20.3014 7.12324 20.2492 7.06281C20.1971 7.00237 20.1251 6.96264 20.0461 6.95083L18.4195 6.70683Z" fill="#3B3B3E"/>
  <path d="M28.154 16.0941C28.1514 16.051 28.1383 16.0092 28.1159 15.9722C28.0935 15.9353 28.0625 15.9043 28.0255 15.882C27.9885 15.8597 27.9467 15.8468 27.9036 15.8442C27.8604 15.8417 27.8174 15.8496 27.778 15.8674C20.35 19.1568 11.6433 19.1568 4.21533 15.8674C4.17598 15.8496 4.13289 15.8417 4.08978 15.8442C4.04666 15.8468 4.00481 15.8597 3.96783 15.882C3.93084 15.9043 3.89982 15.9353 3.87744 15.9722C3.85506 16.0092 3.84198 16.051 3.83933 16.0941C3.70429 18.6467 3.84151 21.2065 4.24867 23.7301C4.37295 24.4988 4.75144 25.2036 5.3236 25.7317C5.89575 26.2599 6.62852 26.5809 7.40467 26.6434L9.90067 26.8434C13.958 27.1714 18.034 27.1714 22.0927 26.8434L24.5887 26.6434C25.3648 26.5809 26.0976 26.2599 26.6697 25.7317C27.2419 25.2036 27.6204 24.4988 27.7447 23.7301C28.1527 21.2034 28.2913 18.6434 28.154 16.0954" fill="#3B3B3E"/>
</svg>