<svg width="25" height="25" viewBox="0 0 25 25" fill="none" xmlns="http://www.w3.org/2000/svg">
<path d="M12.5035 21L12.4995 12M20.7585 17.658C21.5593 17.095 22.1598 16.2913 22.4728 15.3638C22.7859 14.4363 22.7952 13.4332 22.4995 12.5C21.893 10.585 20.0345 9.53553 18.026 9.53753H16.8655C16.5887 8.45777 16.0705 7.45489 15.3499 6.6044C14.6294 5.75391 13.7253 5.07798 12.7056 4.62752C11.686 4.17705 10.5775 3.96378 9.46354 4.00377C8.34957 4.04376 7.25919 4.33596 6.2745 4.85838C5.28982 5.38079 4.43649 6.11981 3.77877 7.01977C3.12106 7.91973 2.67609 8.95719 2.47739 10.054C2.27869 11.1509 2.33142 12.2785 2.63163 13.352C2.93183 14.4255 3.47168 15.4169 4.21052 16.2515" stroke="#8993A4" stroke-width="2" stroke-linecap="round" stroke-linejoin="round"/>
<path d="M15.6804 14.3182L12.4984 11.1362L9.31641 14.3182" stroke="#8993A4" stroke-width="2" stroke-linecap="round" stroke-linejoin="round"/>
</svg>
